<svg xmlns="http://www.w3.org/2000/svg" width="109.743" height="104.505" viewBox="0 0 109.743 104.505">
  <g id="production" transform="translate(1837.257 633.154)">
    <path id="Path_193" data-name="Path 193" d="M-1826.96,41.016c2.341,0,4.584.018,6.856.056a4.494,4.494,0,0,1,2.829,1.6,12.086,12.086,0,0,1,1.565,2.182c.214.35.439.721.7,1.115l.942,1.414h-23.19v-6.3l.906,0c.808,0,1.733-.013,2.776-.023C-1831.734,41.039-1829.529,41.016-1826.96,41.016Zm9.553,4.544a9.363,9.363,0,0,0-1.182-1.635,3.022,3.022,0,0,0-1.544-1.035c-2.262-.037-4.5-.055-6.826-.055-2.562,0-4.761.022-6.6.041l-1.881.018V45.56Z" transform="translate(0 -618.433)" fill="#4c4c4c"/>
    <path id="Path_194" data-name="Path 194" d="M-1721.754,129.575h15.775l-1.288,1.5c-1.163,1.356-.668,1.9.417,3.079l.318.35.742.832c2.079,2.33,4.229,4.74,6.177,7.258a8.237,8.237,0,0,1,1.244,4.163c-.741,5.905-1.651,11.883-2.531,17.665l-.349,2.3c-.335,2.21-2.481,4.3-4.416,4.3-.08,0-.158,0-.235-.011a4.5,4.5,0,0,1-3.058-1.715,4.979,4.979,0,0,1-1.052-3.738c.737-5.58,1.541-11.007,2.39-16.132a4.152,4.152,0,0,0-1.124-3.977c-2.867-3.118-5.654-6.394-8.349-9.562l-2.087-2.449a12.246,12.246,0,0,1-1.074-1.554c-.172-.277-.357-.576-.571-.9Zm12.184,1.819h-8.844a7.584,7.584,0,0,0,.618.863l2.09,2.452c2.684,3.155,5.459,6.417,8.3,9.51a5.952,5.952,0,0,1,1.579,5.505c-.846,5.105-1.647,10.513-2.381,16.073a3.152,3.152,0,0,0,.669,2.365,2.677,2.677,0,0,0,1.8,1.039,3.457,3.457,0,0,0,2.687-2.751l.349-2.3c.875-5.752,1.78-11.7,2.517-17.564a6.971,6.971,0,0,0-.871-2.877c-1.91-2.468-4.039-4.854-6.1-7.161l-1.043-1.163C-1709.032,134.466-1710.216,133.174-1709.57,131.394Z" transform="translate(-105.954 -699.67)" fill="#4c4c4c"/>
    <path id="Path_195" data-name="Path 195" d="M-1464.244,47.686h46.441v5.947h-43.945Zm44.622,1.819h-41.886l.969,2.31h40.917Z" transform="translate(-342.174 -624.552)" fill="#4c4c4c"/>
    <path id="Path_196" data-name="Path 196" d="M-1410.14-388.045h.013a8.44,8.44,0,0,1,6.031,2.488,8.478,8.478,0,0,1,2.446,6.081,8.429,8.429,0,0,1-8.384,8.448h-.091a8.539,8.539,0,0,1-8.523-8.474,8.446,8.446,0,0,1,2.465-6.045A8.46,8.46,0,0,1-1410.14-388.045Zm.016,15.2a6.639,6.639,0,0,0,6.656-6.642,6.673,6.673,0,0,0-1.918-4.787,6.634,6.634,0,0,0-4.743-1.95l-.01-.909v.909a6.654,6.654,0,0,0-4.754,1.962,6.64,6.64,0,0,0-1.935,4.753A6.716,6.716,0,0,0-1410.124-372.847Z" transform="translate(-384.001 -224.844)" fill="#4c4c4c"/>
    <path id="Path_197" data-name="Path 197" d="M-1521.012-192.021a10.748,10.748,0,0,1,1.976.193c2.846.535,5.032,3.155,5.568,6.675a15.7,15.7,0,0,1-.024,3.842,18.4,18.4,0,0,0-.112,2.721c.059,1.016.376,1.4,1.475,1.788.817.288,1.855.552,2.953.83a26.015,26.015,0,0,1,5.122,1.659l3.671,1.875-4.119-.156c-1.413-.054-2.866-.026-4.335,0-.878.016-1.76.033-2.643.033a27.715,27.715,0,0,1-8.22-.989,1.72,1.72,0,0,1-1.258,1.015l-.347.035a14.965,14.965,0,0,1-1.5.1,2.74,2.74,0,0,1-2.088-.694,25.6,25.6,0,0,1-2.776-3.771c-.227-.354-.476-.741-.762-1.177l-.738-1.127,1.534-.305a28.87,28.87,0,0,0,6.5-1.811c1.223-.522,1.679-2.162,1.585-3.465-.058-.805-.235-3.255-3.982-3.255a9.074,9.074,0,0,0-1.97.221l-2.119.543,1.109-1.885A6,6,0,0,1-1521.012-192.021Zm10.691,17.635c-.879-.226-1.7-.449-2.413-.7a3.5,3.5,0,0,1-2.686-3.4,20.023,20.023,0,0,1,.117-2.99,14.116,14.116,0,0,0,.037-3.4c-.412-2.7-2.061-4.777-4.105-5.161a8.929,8.929,0,0,0-1.64-.162,5.372,5.372,0,0,0-2.118.388c3.215.137,5.171,1.918,5.389,4.934.144,1.991-.631,4.393-2.685,5.269a26.984,26.984,0,0,1-5.757,1.7l.041.064a23.871,23.871,0,0,0,2.6,3.542,1.99,1.99,0,0,0,.732.087c.415,0,.894-.049,1.318-.093l.13-.013c.066-.1.147-.243.2-.341a5.456,5.456,0,0,1,.321-.52l.4-.548.64.232a24.63,24.63,0,0,0,8.315,1.121Q-1510.9-174.378-1510.321-174.386Z" transform="translate(-282.614 -404.663)" fill="#4c4c4c"/>
    <path id="Path_198" data-name="Path 198" d="M-1636.675-135.3a3.05,3.05,0,0,1,3.111,2.747,3.085,3.085,0,0,1-2.711,3.633c-1.95.4-3.893.754-5.95,1.131l-1.31.241.039.061c.526.815,1.014,1.572,1.511,2.322q1.687,2.545,3.385,5.083l1.115,1.671a3.636,3.636,0,0,1,.706,2.807,3.1,3.1,0,0,1-1.516,1.976,3.278,3.278,0,0,1-1.731.532,3.339,3.339,0,0,1-2.8-1.74l-2.149-3.219c-2.143-3.206-4.359-6.522-6.494-9.815a3.411,3.411,0,0,1-.5-3.192,3.551,3.551,0,0,1,2.732-1.945c3.986-.823,8.009-1.549,11.789-2.222A4.4,4.4,0,0,1-1636.675-135.3Zm-3.35,20.384a1.5,1.5,0,0,0,.774-.26,1.376,1.376,0,0,0,.7-.816A2.054,2.054,0,0,0-1639-117.4l-1.115-1.67q-1.7-2.542-3.388-5.088c-.5-.756-.993-1.519-1.524-2.341l-1.514-2.338,1.335-.249c.9-.169,1.785-.33,2.649-.489,2.048-.376,3.982-.73,5.915-1.124,1.486-.3,1.331-1.246,1.28-1.556a1.243,1.243,0,0,0-1.316-1.223,2.567,2.567,0,0,0-.449.042c-3.767.67-7.776,1.394-11.739,2.212a1.85,1.85,0,0,0-1.422.865,1.7,1.7,0,0,0,.344,1.5c2.128,3.283,4.34,6.593,6.48,9.794l2.151,3.221A1.768,1.768,0,0,0-1640.025-114.913Z" transform="translate(-169.784 -456.697)" fill="#4c4c4c"/>
    <path id="Path_199" data-name="Path 199" d="M-1169.059-281.72l-.03-.91v-8.176h-.212l-.291-.39a12.466,12.466,0,0,0-.841-1.028,5.3,5.3,0,0,1-1.671-2.988c-.2-3.608-.169-6.364-.138-9.555.012-1.243.024-2.55.024-4v-.909h8.581v2.2c0,2.342.026,4.687.052,7.026l.031,2.925a8.4,8.4,0,0,1-1.013,3.884c-.2.423-.383.822-.533,1.249-.236.672-.914.881-1.57,1.082l-.134.041v9.546Zm-1.341-26.134c0,1.1-.013,2.122-.023,3.1-.03,3.16-.056,5.889.136,9.439.028.523.636,1.217,1.223,1.888.213.244.431.493.636.749l.3-.048.067-.028c.285-.12.584-.213.861-.3.15-.046.34-.1.463-.153.163-.43.347-.825.525-1.208a6.608,6.608,0,0,0,.843-3.1l-.031-2.921c-.026-2.346-.052-4.7-.052-7.046v-.379Z" transform="translate(-610.016 -296.737)" fill="#4c4c4c"/>
    <path id="Path_200" data-name="Path 200" d="M-608.137-443.482h5.425v17.834h-5.425Zm3.606,1.819h-1.787v14.2h1.787Z" transform="translate(-1127.503 -173.991)" fill="#4c4c4c"/>
    <path id="Rectangle_141" data-name="Rectangle 141" d="M-11-11H2.212v4.744H-11ZM.393-9.181H-9.181v1.107H.393Z" transform="translate(-1757.193 -595.187)" fill="#4c4c4c"/>
    <path id="Rectangle_142" data-name="Rectangle 142" d="M-11-11H-.394v4.718H-11Zm8.787,1.819H-9.181V-8.1h6.969Z" transform="translate(-1765.98 -622.154)" fill="#4c4c4c"/>
    <path id="Path_201" data-name="Path 201" d="M-1223.591-468.648l-9.152-.042q-9.31-.045-18.62-.071-6.47-.011-12.94-.01l-20.042.005h-3.377l-.073-.83c-.037-.424-.028-1.095-.019-1.805.009-.689.018-1.4-.017-1.8l-.087-.989h8.676v-33.376h31.167v-37.276h-30.919v-20.281h46.633v90.886h8.769Zm-40.712-1.942q6.472,0,12.943.01,9.313.016,18.626.071l7.324.034v-1.943h-8.769V-563.3h-43v16.643h30.919v40.914h-31.167v33.376h-8.564c0,.318,0,.659-.008,1,0,.269-.007.542-.008.792Zm-5.605-6.775a2.716,2.716,0,0,1-2.04-.708,2.665,2.665,0,0,1-.667-2.013c.09-5.806.089-11.619,0-17.278a2.683,2.683,0,0,1,.678-2.03,2.936,2.936,0,0,1,2.2-.747,9.884,9.884,0,0,1,1.741.182l.748.135v22.055l-.717.155A9.352,9.352,0,0,1-1269.909-477.365Zm.171-20.956a1.424,1.424,0,0,0-.906.2,1.1,1.1,0,0,0-.156.725c.091,5.678.092,11.51,0,17.335a1.121,1.121,0,0,0,.145.709,1.177,1.177,0,0,0,.744.165,5.756,5.756,0,0,0,.841-.073V-498.28A6.126,6.126,0,0,0-1269.738-498.321Z" transform="translate(-503.922 -62.406)" fill="#4c4c4c"/>
  </g>
</svg>
