<svg xmlns="http://www.w3.org/2000/svg" width="69.742" height="62.276" viewBox="0 0 69.742 62.276">
  <g id="approved" transform="translate(-10.121 -13.86)">
    <path id="Path_160" data-name="Path 160" d="M23.188,20.636a1.139,1.139,0,0,0-1.109.886L10.152,74.688a1.125,1.125,0,0,0,1.1,1.385l67.475.063a1.135,1.135,0,0,0,1.109-1.391L77.287,63.387a1.134,1.134,0,1,0-2.213.494l2.244,9.979L12.668,73.8l11.426-50.89H50.949a1.138,1.138,0,0,0,0-2.276Z" fill="#4c4c4c" fill-rule="evenodd"/>
    <path id="Path_161" data-name="Path 161" d="M52.6,52.673a15.885,15.885,0,0,0,5.057,1.864,36.389,36.389,0,0,0,9.271.7,28.576,28.576,0,0,0,8.521-1.546,12.561,12.561,0,0,0,2.15-1.011v2.147c0,.281-.281.812-1.287,1.427a15.1,15.1,0,0,1-4.619,1.609,35.786,35.786,0,0,1-13.188,0,15.22,15.22,0,0,1-4.625-1.609c-1.006-.615-1.281-1.146-1.281-1.427V52.673ZM64.969,16.136c3.131,0,5.225.694,6.381,1.762s1.615,2.588,1.234,4.927l-2.35,13.942a6.6,6.6,0,0,1-1.025,2.6,2.791,2.791,0,0,1-1.666.855,1.14,1.14,0,0,0-.906,1.114v5.937a6.044,6.044,0,0,1-3.344.016V41.335a1.139,1.139,0,0,0-.9-1.114,2.831,2.831,0,0,1-1.676-.855,5.049,5.049,0,0,1-1.027-2.594L57.344,22.824c-.379-2.339.078-3.855,1.24-4.927s3.256-1.761,6.385-1.761Zm0-2.276c-3.457,0-6.156.729-7.932,2.371s-2.391,4.129-1.932,6.952l2.348,13.959a7.124,7.124,0,0,0,1.578,3.746,4.658,4.658,0,0,0,2,1.068v6.39A1.131,1.131,0,0,0,61.74,49.4a8.8,8.8,0,0,0,6.4.014,1.133,1.133,0,0,0,.762-1.066V45.918a21.425,21.425,0,0,1,6.775,1.677,5.206,5.206,0,0,1,1.641,1.15c.281.344.313.521.271.724-.078.418-1,1.38-2.938,2.1a26.569,26.569,0,0,1-7.824,1.4,34.29,34.29,0,0,1-8.688-.656A11.363,11.363,0,0,1,53,50.116c-.354-.365-.406-.584-.4-.756v-.042a1.343,1.343,0,0,1,.51-.812,12.213,12.213,0,0,1,5.4-2.177,1.135,1.135,0,0,0-.447-2.225c-2.934.594-5.125,1.474-6.49,2.744a3.253,3.253,0,0,0-1.234,2.339l.021,5.942c0,1.292,1.1,2.3,2.348,3.063a16.785,16.785,0,0,0,5.355,1.891,37.223,37.223,0,0,0,14.082,0,16.752,16.752,0,0,0,5.355-1.891c1.223-.744,2.328-1.725,2.332-2.984l.027-5.948a3.157,3.157,0,0,0-.787-1.959,7.056,7.056,0,0,0-2.4-1.743,23.431,23.431,0,0,0-7.77-1.929V41.954a4.64,4.64,0,0,0,1.994-1.068,7.177,7.177,0,0,0,1.578-3.746l2.344-13.959c.469-2.822-.156-5.312-1.932-6.952s-4.462-2.369-7.915-2.369Z" fill="#4c4c4c"/>
    <path id="Path_162" data-name="Path 162" d="M31.6,31.516a1.137,1.137,0,0,0,.115,2.272H51.678a1.137,1.137,0,1,0,0-2.272c-6.688.053-13.4-.056-20.078,0Z" fill="#4c4c4c"/>
    <path id="Path_163" data-name="Path 163" d="M25.959,39.1c-1.51,0-1.391,2.266.119,2.266h6.068a1.134,1.134,0,1,0,0-2.266C31.391,39.122,28.021,39.1,25.959,39.1Z" fill="#4c4c4c"/>
    <path id="Path_164" data-name="Path 164" d="M37.793,39.1c-1.512,0-1.391,2.266.119,2.266H52.631a1.134,1.134,0,1,0,0-2.266H37.793Z" fill="#4c4c4c"/>
    <path id="Path_165" data-name="Path 165" d="M26.078,46.657a1.138,1.138,0,0,0,0,2.276H45.865a1.138,1.138,0,0,0,0-2.276H26.078Z" fill="#4c4c4c"/>
    <g id="Group_300" data-name="Group 300">
      <path id="Path_166" data-name="Path 166" d="M31.365,54.366A16.263,16.263,0,0,0,24.719,56.4a7.823,7.823,0,0,0-3.738,4.317,5.669,5.669,0,0,0,1.078,5.14c2.416,3.1,7.307,4.652,12.406,4.349s9.5-2.416,10.916-5.907a1.134,1.134,0,1,0-2.1-.848c-.865,2.15-4.428,4.214-8.953,4.484s-8.8-1.317-10.48-3.475a3.229,3.229,0,0,1-.7-3.093,5.637,5.637,0,0,1,2.725-3.01c3.1-1.823,8.088-2.328,12.109-1.135a1.139,1.139,0,0,0,.65-2.183,19.421,19.421,0,0,0-7.266-.676Z" fill="#4c4c4c" fill-rule="evenodd"/>
      <path id="Path_167" data-name="Path 167" d="M45.469,55.955a1.038,1.038,0,0,0-.5.162L33.012,63.055c.047-.027-.359-.027-.334,0h-.006l-3.535-2.09a1.134,1.134,0,1,0-1.162,1.947l3.547,2.1h.006a2.457,2.457,0,0,0,2.619,0l11.959-6.939A1.134,1.134,0,0,0,45.469,55.955Z" fill="#4c4c4c" fill-rule="evenodd"/>
    </g>
  </g>
</svg>
