<svg xmlns="http://www.w3.org/2000/svg" width="82.757" height="83.027" viewBox="0 0 82.757 83.027">
  <g id="deal" transform="translate(-0.277)">
    <path id="Path_182" data-name="Path 182" d="M197.207,329.2l-7.729-2.813a1.371,1.371,0,0,0-1.756.823l-.469,1.287-8.954-3.265a1.324,1.324,0,0,0-.7-.062l-18.629,3.29a5.5,5.5,0,0,0-3.924,2.9l-8.545-3.117a5.429,5.429,0,0,0-4.19.185A5.5,5.5,0,0,0,139.2,332.6a5.6,5.6,0,0,0,3.741,6.019l28.149,10.245a1.337,1.337,0,0,0,.469.084,1.374,1.374,0,0,0,.438-.072l7.861-2.654.837.3-.469,1.288a1.371,1.371,0,0,0,.823,1.756l7.73,2.813a1.325,1.325,0,0,0,.467.084,1.37,1.37,0,0,0,1.288-.9l7.5-20.611a1.371,1.371,0,0,0-.824-1.748Zm-17.775,14.268-7.861,2.654-27.7-10.082a2.9,2.9,0,0,1-1.968-3.027,2.741,2.741,0,0,1,3.655-2.193l8.894,3.236a5.933,5.933,0,0,0,.062.755,5.507,5.507,0,0,0,6.348,4.448l15.433-2.721-.477-2.7-15.425,2.721a2.761,2.761,0,0,1-3.176-2.214,2.539,2.539,0,0,1,.007-.946,1.365,1.365,0,0,0,.023-.137,1.511,1.511,0,0,1,.094-.341,2.754,2.754,0,0,1,2.1-1.764l18.264-3.221,8.609,3.132-4.689,12.885-1.288-.467a1.375,1.375,0,0,0-.908-.018Zm8.984,5.869-5.152-1.875,6.563-18.034,5.153,1.875Zm0,0" transform="translate(-115.077 -269.438)" fill="#4c4c4c"/>
    <path id="Path_183" data-name="Path 183" d="M32.207,22.112a10.742,10.742,0,0,0,2.382,4.361,2.631,2.631,0,0,0-.042.332V34.27a4.112,4.112,0,0,0,4.112,4.112V52.09a1.37,1.37,0,0,0,.758,1.234l2.742,1.371a1.371,1.371,0,0,0,1.226,0l2.742-1.371a1.37,1.37,0,0,0,.758-1.234V38.382A4.113,4.113,0,0,0,51,34.27V26.8a2.78,2.78,0,0,0-.046-.357,10.621,10.621,0,0,0,2.1-3.458,5.007,5.007,0,0,0,5.113-2.345,5.411,5.411,0,0,0-.861-6.681L46.149,2.81A9.535,9.535,0,0,0,39.365,0H24.951a1.35,1.35,0,0,0-.54.111l-9.33,4h-1.1V1.371A1.371,1.371,0,0,0,12.614,0H1.648A1.371,1.371,0,0,0,.277,1.371V23.3a1.371,1.371,0,0,0,1.371,1.371H12.614A1.371,1.371,0,0,0,13.985,23.3V20.562h.2c.981,3.29,5.389,5.483,9.4,5.483a10.937,10.937,0,0,0,8.626-3.933Zm-20.963-.179H3.019V2.742h8.225Zm32.9,29.31-1.371.685L41.4,51.243V38.382h2.742ZM48.255,34.27a1.371,1.371,0,0,1-1.371,1.371H38.659a1.371,1.371,0,0,1-1.371-1.371v-5.6a10.784,10.784,0,0,0,2.956,1.179,2.76,2.76,0,1,0,.384-2.755,8.13,8.13,0,0,1-2.193-.936,10.763,10.763,0,0,1,4.336-1.487,12.85,12.85,0,0,1,5.483,2.13Zm1.021-10.044a14.963,14.963,0,0,0-6.5-2.293,14.938,14.938,0,0,0-6.494,2.288,8.03,8.03,0,0,1-1.609-3.659H41.4A5.345,5.345,0,0,0,46.19,17.7l3.839,3.838a4.94,4.94,0,0,0,.485.4,7.863,7.863,0,0,1-1.238,2.293Zm-2.456-9.779a5.433,5.433,0,0,0-1.358-3.016A8.226,8.226,0,0,1,50.966,18.6ZM30.434,19.191c0,2.076-3.4,4.112-6.854,4.112s-6.854-2.037-6.854-4.112a1.371,1.371,0,0,0-1.371-1.371H13.985V6.854h1.371a1.353,1.353,0,0,0,.54-.111l9.329-4H39.358A6.811,6.811,0,0,1,44.21,4.748L55.363,15.9a2.655,2.655,0,0,1,.489,3.264,2.467,2.467,0,0,1-2.115,1.15h-.065a10.679,10.679,0,0,0,.065-1.124A10.979,10.979,0,0,0,42.771,8.225,10.852,10.852,0,0,0,37.508,9.6H26.322v2.742H41.4a2.742,2.742,0,0,1,0,5.483h-9.6a1.371,1.371,0,0,0-1.371,1.371Zm0,0" fill="#4c4c4c"/>
  </g>
</svg>
