<svg id="meeting" xmlns="http://www.w3.org/2000/svg" width="75.06" height="71.933" viewBox="0 0 75.06 71.933">
  <path id="Path_147" data-name="Path 147" d="M245.332,341.332h3.128v21.893h-3.128Zm0,0" transform="translate(-209.366 -291.292)" fill="#4c4c4c"/>
  <path id="Path_148" data-name="Path 148" d="M96,298.668h46.912V301.8H96Zm0,0" transform="translate(-81.926 -254.883)" fill="#4c4c4c"/>
  <path id="Path_149" data-name="Path 149" d="M413.151,68.97a7.819,7.819,0,1,1,7.819-7.819A7.828,7.828,0,0,1,413.151,68.97Zm0-12.51a4.691,4.691,0,1,0,4.691,4.691A4.7,4.7,0,0,0,413.151,56.46Zm0,0" transform="translate(-345.91 -45.513)" fill="#4c4c4c"/>
  <path id="Path_150" data-name="Path 150" d="M306.486,226.681a1.533,1.533,0,0,1-.616-.127,1.562,1.562,0,0,1-.821-2.053l4.691-10.946a1.561,1.561,0,0,1,1.437-.947h10.946a4.7,4.7,0,0,0,4.691-4.691V187.587a3.131,3.131,0,0,0-3.128-3.127h-1.563c-1.1,0-2.1.726-3.443,2.508-1.511,2-6.1,7.624-6.29,7.862a1.567,1.567,0,0,1-1.213.576h-7.819a1.564,1.564,0,0,0-1.564,1.564V200.1a1.564,1.564,0,1,1-3.127,0V196.97a4.7,4.7,0,0,1,4.691-4.691h7.074c1.232-1.517,4.554-5.614,5.752-7.2,1.321-1.745,3.188-3.749,5.939-3.749h1.563a6.262,6.262,0,0,1,6.255,6.255v20.329a7.828,7.828,0,0,1-7.819,7.819h-9.916l-4.285,10A1.562,1.562,0,0,1,306.486,226.681Zm0,0" transform="translate(-254.883 -154.748)" fill="#4c4c4c"/>
  <path id="Path_151" data-name="Path 151" d="M300.234,326.815a1.566,1.566,0,0,1-1.482-2.06l5.185-15.557a6.243,6.243,0,0,1,5.933-4.275h4.438v-4.691a1.564,1.564,0,0,1,3.128,0v6.255a1.563,1.563,0,0,1-1.564,1.564h-6a3.119,3.119,0,0,0-2.965,2.136l-5.187,15.559a1.566,1.566,0,0,1-1.484,1.07Zm0,0" transform="translate(-254.885 -254.883)" fill="#4c4c4c"/>
  <path id="Path_152" data-name="Path 152" d="M406.892,265.392a1.563,1.563,0,0,1-1.25-2.5l4.691-6.255a1.563,1.563,0,0,1,2.5,1.875l-4.691,6.255A1.555,1.555,0,0,1,406.892,265.392Zm0,0" transform="translate(-345.907 -218.48)" fill="#4c4c4c"/>
  <path id="Path_153" data-name="Path 153" d="M7.819,68.97a7.819,7.819,0,1,1,7.819-7.819A7.828,7.828,0,0,1,7.819,68.97Zm0-12.51a4.691,4.691,0,1,0,4.691,4.691A4.7,4.7,0,0,0,7.819,56.46Zm0,0" transform="translate(0 -45.513)" fill="#4c4c4c"/>
  <path id="Path_154" data-name="Path 154" d="M23.456,226.681a1.562,1.562,0,0,1-1.437-.948l-4.285-10H7.819A7.828,7.828,0,0,1,0,207.916V187.587a6.262,6.262,0,0,1,6.255-6.255H7.819c2.751,0,4.62,2,5.938,3.749,1.2,1.584,4.519,5.681,5.751,7.2h7.076a4.7,4.7,0,0,1,4.691,4.691V200.1a1.564,1.564,0,1,1-3.127,0V196.97a1.566,1.566,0,0,0-1.564-1.564H18.765a1.561,1.561,0,0,1-1.212-.576c-.194-.238-4.781-5.867-6.29-7.864-1.348-1.781-2.346-2.507-3.445-2.507H6.255a3.131,3.131,0,0,0-3.128,3.127v20.329a4.7,4.7,0,0,0,4.691,4.691H18.765a1.561,1.561,0,0,1,1.437.947L24.893,224.5a1.564,1.564,0,0,1-.821,2.053,1.533,1.533,0,0,1-.616.127Zm0,0" transform="translate(0 -154.748)" fill="#4c4c4c"/>
  <path id="Path_155" data-name="Path 155" d="M102.534,326.815a1.566,1.566,0,0,1-1.484-1.07l-5.185-15.558A3.123,3.123,0,0,0,92.9,308.05h-6a1.564,1.564,0,0,1-1.564-1.564v-6.255a1.564,1.564,0,0,1,3.128,0v4.691H92.9a6.246,6.246,0,0,1,5.934,4.275l5.185,15.557a1.563,1.563,0,0,1-.988,1.979,1.587,1.587,0,0,1-.5.081Zm0,0" transform="translate(-72.822 -254.883)" fill="#4c4c4c"/>
  <path id="Path_156" data-name="Path 156" d="M59.587,265.392a1.564,1.564,0,0,1-1.253-.625l-4.691-6.255a1.563,1.563,0,0,1,2.5-1.875l4.691,6.255a1.563,1.563,0,0,1-1.25,2.5Zm0,0" transform="translate(-45.511 -218.48)" fill="#4c4c4c"/>
  <path id="Path_157" data-name="Path 157" d="M186.583,149.892a1.562,1.562,0,0,1-1.563-1.563V137.382a6.262,6.262,0,0,0-6.255-6.255h-9.383a6.261,6.261,0,0,0-6.255,6.255v4.691a1.564,1.564,0,1,1-3.127,0v-4.691A9.392,9.392,0,0,1,169.382,128h9.382a9.392,9.392,0,0,1,9.383,9.382v10.946A1.562,1.562,0,0,1,186.583,149.892Zm0,0" transform="translate(-136.544 -109.235)" fill="#4c4c4c"/>
  <path id="Path_158" data-name="Path 158" d="M210.487,15.638a7.819,7.819,0,1,1,7.819-7.819A7.828,7.828,0,0,1,210.487,15.638Zm0-12.51a4.691,4.691,0,1,0,4.691,4.691A4.7,4.7,0,0,0,210.487,3.127Zm0,0" transform="translate(-172.957)" fill="#4c4c4c"/>
  <path id="Path_159" data-name="Path 159" d="M245.332,170.668h3.128V173.8h-3.128Zm0,0" transform="translate(-209.366 -145.648)" fill="#4c4c4c"/>
</svg>
