<svg xmlns="http://www.w3.org/2000/svg" width="90.702" height="49.099" viewBox="0 0 90.702 49.099">
  <g id="truck" transform="translate(0.091 -11.305)">
    <path id="Path_172" data-name="Path 172" d="M44.872,44.6a7.77,7.77,0,1,1,7.765-7.768A7.77,7.77,0,0,1,44.872,44.6Zm0-12.706a4.936,4.936,0,1,0,4.93,4.936,4.936,4.936,0,0,0-4.93-4.936Z" transform="translate(33.084 15.8)" fill="#4c4c4c"/>
    <path id="Path_173" data-name="Path 173" d="M23.2,44.6a7.77,7.77,0,1,1,7.763-7.77A7.77,7.77,0,0,1,23.2,44.6Zm0-12.706a4.936,4.936,0,1,0,4.928,4.936A4.936,4.936,0,0,0,23.2,31.9Z" transform="translate(13.805 15.8)" fill="#4c4c4c"/>
    <path id="Path_174" data-name="Path 174" d="M57.345,48.158H53.469a1.417,1.417,0,1,1,0-2.835h3.475V37.808a5.971,5.971,0,0,0-.756-2.9L48.517,21.151a.756.756,0,0,0-.659-.387H37.4V45.329h3.375a1.417,1.417,0,1,1,0,2.835H35.984a1.417,1.417,0,0,1-1.417-1.417v-27.4a1.417,1.417,0,0,1,1.417-1.417H47.857a3.59,3.59,0,0,1,3.137,1.841l7.67,13.757a8.81,8.81,0,0,1,1.113,4.282v7.918A2.436,2.436,0,0,1,57.345,48.158Z" transform="translate(30.834 5.893)" fill="#4c4c4c"/>
    <path id="Path_175" data-name="Path 175" d="M23.248,40.392H9.659a1.417,1.417,0,0,1-1.417-1.417v-10.9a1.417,1.417,0,0,1,2.835,0v9.482H23.248a1.417,1.417,0,1,1,0,2.835Z" transform="translate(7.414 13.659)" fill="#4c4c4c"/>
    <path id="Path_176" data-name="Path 176" d="M9.659,30.562a1.417,1.417,0,0,1-1.417-1.417V19.628a1.417,1.417,0,1,1,2.835,0V29.15a1.417,1.417,0,0,1-1.417,1.412Z" transform="translate(7.414 6.144)" fill="#4c4c4c"/>
    <path id="Path_177" data-name="Path 177" d="M59.4,54.051H35.941a1.417,1.417,0,1,1,0-2.835H57.988V14.14H11.077v5.837a1.417,1.417,0,0,1-2.835,0v-6.1A2.578,2.578,0,0,1,10.818,11.3H58.248a2.578,2.578,0,0,1,2.574,2.574V52.634A1.417,1.417,0,0,1,59.4,54.051Z" transform="translate(7.414 0)" fill="#4c4c4c"/>
    <path id="Path_178" data-name="Path 178" d="M21.093,29.493H3.105a1.417,1.417,0,1,1,0-2.835H21.093a1.417,1.417,0,1,1,0,2.835Z" transform="translate(1.583 13.659)" fill="#4c4c4c"/>
    <path id="Path_179" data-name="Path 179" d="M32.027,26.082H6.926a1.417,1.417,0,1,1,0-2.834h25.1a1.417,1.417,0,0,1,0,2.835Z" transform="translate(4.982 10.624)" fill="#4c4c4c"/>
    <path id="Path_180" data-name="Path 180" d="M11.128,22.122h-9.8a1.417,1.417,0,0,1,0-2.835h9.8a1.417,1.417,0,0,1,0,2.835Z" transform="translate(0 7.101)" fill="#4c4c4c"/>
    <path id="Path_181" data-name="Path 181" d="M22.976,17.979H5.674a1.417,1.417,0,1,1,0-2.835h17.3a1.417,1.417,0,1,1,0,2.835Z" transform="translate(3.868 3.415)" fill="#4c4c4c"/>
  </g>
</svg>
